<svg width="528" height="275" viewBox="0 0 528 275" fill="none" xmlns="http://www.w3.org/2000/svg">
<path fill-rule="evenodd" clip-rule="evenodd" d="M180 25.5C186.4 29.9 186.333 46.6667 185.5 54.5L194.5 42.5C195.833 36.8333 196.6 23.3 189 14.5C179.5 3.49999 161 3.5 154 4C147 4.5 113.5 8.5 80 34C46.5 59.5 11.5 109.5 6.49998 133C1.49998 156.5 1.49998 161 3.49998 189C5.49998 217 44 260 64 258C83.2452 256.075 108.046 245.355 129.493 236.084C130.334 235.72 131.17 235.359 132 235C149.6 227.4 173.333 213.833 183 208C184.667 211.667 191.9 219.9 207.5 223.5C227 228 250.5 208 264.5 196C275.7 186.4 282.833 170.667 285 164L316 223.5C315.833 225.5 315.6 232.5 316 244.5C316.4 256.5 328.167 268.167 334 272.5L341 271L349.5 242.5L348 115.5L345.506 88.6552C346.523 88.597 347.522 88.5451 348.5 88.5C374.5 87.3 389.333 89.3333 393.5 90.5C386.5 92 371.4 96.4 367 102C361.5 109 362.5 122.5 373 130.5C383.5 138.5 390 141.5 412 144.5C416.881 145.166 421.91 145.782 426.983 146.404C444.774 148.584 463.105 150.831 477.5 155.5C492.3 160.3 498 162.5 499 163C496.167 164.833 488.6 169.1 481 171.5C473.4 173.9 411.167 182.833 381 187C378.833 189 374.2 194.5 373 200.5C371.5 208 384 215 388.5 215C390.469 215 396.651 213.564 404.866 211.655C415.426 209.202 429.345 205.968 442 204C443.802 203.72 445.722 203.427 447.735 203.119C470.858 199.59 506.181 194.199 514 185C522.5 175 527 163.5 524.5 153.5C522.5 145.5 502.667 137.5 493 134.5C483 131.667 459.2 125.9 444 125.5C425 125 394 120 388.5 116.5C390.667 114.333 400.2 109.8 421 109C433.258 108.529 442.848 108.613 450.086 108.676C458.2 108.748 463.357 108.793 466 108C471 106.5 475.5 90.5 475 87C474.5 83.5 465 80 453.5 78.5C442 77 407 75 390 75.5C378.094 75.8502 361.284 76.6908 344.549 78.3654L337.5 2.5H334.5C333.968 18.7376 332.755 52.4697 331.473 79.8632C328.77 80.2164 326.105 80.5948 323.5 81C308.242 83.3734 282.087 88.549 265.742 91.8981C254.803 89.0544 241.286 90.0997 225.5 99C187.9 120.2 174.167 164.5 172 184C142.333 197.667 80.5 224.4 70.5 222C58 219 40.5 203.5 36 184C31.5 164.5 40.5 122.5 78 72.5C115.5 22.5 172 20 180 25.5ZM276.968 96.542C285.979 101.78 292.262 109.446 295.5 115.5C297.5 123.667 302.7 142.5 307.5 152.5C312.3 162.5 316.833 171 318.5 174C321.833 160.833 328.9 127.4 330.5 99C330.663 96.1074 330.827 93.014 330.992 89.769C312.713 91.4618 291.932 94.2885 276.968 96.542ZM197 178C195.5 167.5 211.269 148.847 227 136.5C237.717 128.088 246 124.5 258 120.5C270 116.5 275 118.167 276 119.5V135C271.667 142.667 261.7 159.5 256.5 165.5C250 173 222.5 190.5 213.5 192C204.5 193.5 198.5 188.5 197 178Z" fill="#FCB014"/>
<path d="M185.5 54.5L183.511 54.2884L182.743 61.5093L187.1 55.7L185.5 54.5ZM180 25.5L181.133 23.8519L181.133 23.8519L180 25.5ZM194.5 42.5L196.1 43.7L196.351 43.3653L196.447 42.9581L194.5 42.5ZM189 14.5L187.486 15.8072L187.486 15.8072L189 14.5ZM6.49998 133L8.45619 133.416L6.49998 133ZM3.49998 189L1.50507 189.142L1.50507 189.142L3.49998 189ZM64 258L63.801 256.01L63.801 256.01L64 258ZM129.493 236.084L128.699 234.248L128.699 234.248L129.493 236.084ZM132 235L131.207 233.164L131.207 233.164L132 235ZM183 208L184.821 207.172L183.891 205.127L181.967 206.288L183 208ZM207.5 223.5L207.05 225.449L207.05 225.449L207.5 223.5ZM264.5 196L263.198 194.481L263.198 194.481L264.5 196ZM285 164L286.774 163.076L284.571 158.849L283.098 163.382L285 164ZM316 223.5L317.993 223.666L318.041 223.089L317.774 222.576L316 223.5ZM334 272.5L332.807 274.105L333.534 274.645L334.419 274.456L334 272.5ZM341 271L341.419 272.956L342.578 272.707L342.917 271.572L341 271ZM349.5 242.5L351.417 243.072L351.503 242.78L351.5 242.476L349.5 242.5ZM348 115.5L350 115.476L349.999 115.395L349.991 115.315L348 115.5ZM345.506 88.6552L345.391 86.6585L343.322 86.7768L343.514 88.8402L345.506 88.6552ZM348.5 88.5L348.592 90.4979L348.592 90.4979L348.5 88.5ZM393.5 90.5L393.919 92.4556L394.039 88.5741L393.5 90.5ZM367 102L368.573 103.236L368.573 103.236L367 102ZM412 144.5L412.27 142.518L412.27 142.518L412 144.5ZM426.983 146.404L427.226 144.419L427.226 144.419L426.983 146.404ZM477.5 155.5L478.117 153.598L478.117 153.598L477.5 155.5ZM499 163L500.087 164.679L503.026 162.777L499.894 161.211L499 163ZM381 187L380.726 185.019L380.105 185.105L379.643 185.53L381 187ZM373 200.5L371.039 200.108L371.039 200.108L373 200.5ZM404.866 211.655L405.319 213.604L405.319 213.604L404.866 211.655ZM442 204L442.307 205.976L442.307 205.976L442 204ZM447.735 203.119L448.037 205.096L448.037 205.096L447.735 203.119ZM514 185L515.524 186.295L515.524 186.295L514 185ZM493 134.5L493.593 132.59L493.569 132.583L493.545 132.576L493 134.5ZM444 125.5L444.053 123.501L444.053 123.501L444 125.5ZM388.5 116.5L387.086 115.086L385.323 116.849L387.426 118.187L388.5 116.5ZM421 109L420.923 107.001L420.923 107.001L421 109ZM450.086 108.676L450.068 110.676L450.086 108.676ZM466 108L466.575 109.916L466.575 109.916L466 108ZM390 75.5L390.059 77.4991L390.059 77.4991L390 75.5ZM344.549 78.3654L342.558 78.5505L342.744 80.556L344.749 80.3555L344.549 78.3654ZM337.5 2.5L339.491 2.31496L339.323 0.5H337.5V2.5ZM334.5 2.5V0.5H332.564L332.501 2.43446L334.5 2.5ZM331.473 79.8632L331.732 81.8464L333.393 81.6294L333.471 79.9567L331.473 79.8632ZM323.5 81L323.193 79.0238L323.193 79.0238L323.5 81ZM265.742 91.8981L265.239 93.8337L265.689 93.9506L266.144 93.8574L265.742 91.8981ZM225.5 99L224.518 97.2578L225.5 99ZM172 184L172.837 185.817L173.863 185.344L173.988 184.221L172 184ZM70.5 222L70.0332 223.945L70.0332 223.945L70.5 222ZM36 184L34.0512 184.45L34.0512 184.45L36 184ZM276.968 96.542L276.67 94.5643L271.043 95.4116L275.962 98.2711L276.968 96.542ZM295.5 115.5L297.443 115.024L297.383 114.779L297.264 114.557L295.5 115.5ZM318.5 174L316.752 174.971L319.201 179.38L320.439 174.491L318.5 174ZM330.5 99L328.503 98.8875L328.503 98.8875L330.5 99ZM330.992 89.769L332.989 89.8703L333.106 87.5647L330.807 87.7775L330.992 89.769ZM227 136.5L228.235 138.073L228.235 138.073L227 136.5ZM276 119.5H278V118.833L277.6 118.3L276 119.5ZM276 135L277.741 135.984L278 135.526V135H276ZM256.5 165.5L258.011 166.81L258.011 166.81L256.5 165.5ZM187.489 54.7116C187.917 50.6878 188.15 44.3826 187.449 38.4767C187.098 35.5246 186.506 32.5954 185.546 30.0743C184.596 27.5801 183.208 25.2786 181.133 23.8519L178.867 27.1481C179.992 27.9214 180.996 29.3657 181.807 31.4976C182.609 33.6025 183.148 36.1796 183.476 38.9483C184.134 44.4841 183.916 50.4789 183.511 54.2884L187.489 54.7116ZM192.9 41.3L183.9 53.3L187.1 55.7L196.1 43.7L192.9 41.3ZM187.486 15.8072C190.935 19.8003 192.549 24.9495 193.113 29.9015C193.677 34.8512 193.17 39.4196 192.553 42.0419L196.447 42.9581C197.163 39.9138 197.706 34.8821 197.087 29.4485C196.468 24.0171 194.665 17.9997 190.514 13.1928L187.486 15.8072ZM154.142 5.99492C157.542 5.7521 163.725 5.63373 170.177 6.90006C176.657 8.17178 183.152 10.7888 187.486 15.8072L190.514 13.1928C185.348 7.21116 177.843 4.32821 170.948 2.97494C164.025 1.61626 157.458 1.7479 153.858 2.00508L154.142 5.99492ZM81.2114 35.5914C114.292 10.4106 147.365 6.47903 154.142 5.99492L153.858 2.00508C146.635 2.52097 112.708 6.58941 78.7886 32.4086L81.2114 35.5914ZM8.45619 133.416C10.8633 122.103 20.6439 104.015 34.1793 85.4273C47.6677 66.904 64.6622 48.1885 81.2114 35.5914L78.7886 32.4086C61.8377 45.3115 44.5823 64.346 30.9457 83.0727C17.356 101.735 7.13669 120.397 4.54377 132.584L8.45619 133.416ZM5.4949 188.858C4.49292 174.83 4.00464 166.831 4.37253 159.412C4.73898 152.021 5.9583 145.156 8.45619 133.416L4.54377 132.584C2.04166 144.344 0.760988 151.479 0.377437 159.213C-0.0046724 166.919 0.507043 175.17 1.50507 189.142L5.4949 188.858ZM63.801 256.01C59.491 256.441 53.817 254.435 47.4793 250.322C41.2141 246.257 34.5982 240.326 28.4985 233.425C22.4031 226.53 16.8726 218.721 12.7518 210.939C8.61931 203.135 5.96767 195.476 5.4949 188.858L1.50507 189.142C2.03229 196.524 4.94316 204.74 9.21687 212.811C13.5024 220.904 19.2218 228.97 25.5015 236.075C31.7768 243.174 38.6608 249.368 45.3019 253.678C51.8704 257.94 58.509 260.559 64.199 259.99L63.801 256.01ZM128.699 234.248C107.143 243.566 82.6665 254.123 63.801 256.01L64.199 259.99C83.8238 258.028 108.949 247.143 130.286 237.919L128.699 234.248ZM131.207 233.164C130.376 233.523 129.54 233.884 128.699 234.248L130.286 237.919C131.127 237.556 131.963 237.194 132.793 236.836L131.207 233.164ZM181.967 206.288C172.319 212.11 148.679 225.619 131.207 233.164L132.793 236.836C150.521 229.181 174.348 215.557 184.033 209.712L181.967 206.288ZM207.95 221.551C192.825 218.061 186.179 210.16 184.821 207.172L181.179 208.828C183.155 213.173 190.975 221.739 207.05 225.449L207.95 221.551ZM263.198 194.481C256.183 200.495 246.935 208.38 237.046 214.215C227.094 220.087 216.921 223.622 207.95 221.551L207.05 225.449C217.579 227.878 228.906 223.663 239.079 217.66C249.315 211.62 258.817 203.505 265.802 197.519L263.198 194.481ZM283.098 163.382C280.984 169.885 274.001 185.222 263.198 194.481L265.802 197.519C277.399 187.578 284.682 171.449 286.902 164.618L283.098 163.382ZM317.774 222.576L286.774 163.076L283.226 164.924L314.226 224.424L317.774 222.576ZM317.999 244.433C317.6 232.46 317.836 225.551 317.993 223.666L314.007 223.334C313.831 225.449 313.6 232.54 314.001 244.567L317.999 244.433ZM335.193 270.895C332.413 268.83 328.155 264.963 324.562 260.175C320.947 255.357 318.179 249.839 317.999 244.433L314.001 244.567C314.221 251.161 317.537 257.477 321.363 262.575C325.211 267.704 329.754 271.837 332.807 274.105L335.193 270.895ZM340.581 269.044L333.581 270.544L334.419 274.456L341.419 272.956L340.581 269.044ZM347.583 241.928L339.083 270.428L342.917 271.572L351.417 243.072L347.583 241.928ZM346 115.524L347.5 242.524L351.5 242.476L350 115.476L346 115.524ZM343.514 88.8402L346.009 115.685L349.991 115.315L347.497 88.4702L343.514 88.8402ZM348.408 86.5021C347.422 86.5476 346.416 86.5999 345.391 86.6585L345.62 90.6519C346.631 90.5941 347.622 90.5426 348.592 90.4979L348.408 86.5021ZM394.039 88.5741C389.565 87.3211 374.478 85.2989 348.408 86.5021L348.592 90.4979C374.522 89.3011 389.102 91.3455 392.961 92.4259L394.039 88.5741ZM368.573 103.236C369.439 102.133 370.949 100.961 373.004 99.7886C375.029 98.6327 377.447 97.5524 379.989 96.5807C385.075 94.6368 390.498 93.1886 393.919 92.4556L393.081 88.5444C389.502 89.3114 383.875 90.8132 378.561 92.8443C375.903 93.8601 373.283 95.0235 371.021 96.3145C368.788 97.5888 366.761 99.0669 365.427 100.764L368.573 103.236ZM374.212 128.909C364.482 121.496 363.85 109.246 368.573 103.236L365.427 100.764C359.15 108.754 360.518 123.504 371.788 132.091L374.212 128.909ZM412.27 142.518C401.307 141.023 394.361 139.547 388.887 137.501C383.461 135.474 379.389 132.854 374.212 128.909L371.788 132.091C377.111 136.146 381.539 139.026 387.488 141.249C393.389 143.453 400.693 144.977 411.73 146.482L412.27 142.518ZM427.226 144.419C422.151 143.797 417.136 143.182 412.27 142.518L411.73 146.482C416.627 147.149 421.669 147.767 426.74 148.389L427.226 144.419ZM478.117 153.598C463.501 148.857 444.958 146.592 427.226 144.419L426.739 148.389C444.589 150.577 462.709 152.805 476.883 157.402L478.117 153.598ZM499.894 161.211C498.729 160.628 492.859 158.379 478.117 153.598L476.883 157.402C491.741 162.221 497.271 164.372 498.106 164.789L499.894 161.211ZM481.602 173.407C489.427 170.936 497.159 166.573 500.087 164.679L497.913 161.321C495.174 163.093 487.773 167.264 480.398 169.593L481.602 173.407ZM381.274 188.981C396.362 186.897 419.471 183.621 439.76 180.565C449.904 179.037 459.352 177.564 466.743 176.321C474.053 175.091 479.536 174.06 481.602 173.407L480.398 169.593C478.664 170.14 473.518 171.125 466.079 172.376C458.721 173.613 449.3 175.083 439.165 176.61C418.896 179.662 395.805 182.936 380.726 185.019L381.274 188.981ZM374.961 200.892C375.492 198.238 376.806 195.608 378.303 193.357C379.796 191.113 381.392 189.36 382.357 188.47L379.643 185.53C378.441 186.64 376.638 188.637 374.972 191.143C373.31 193.642 371.708 196.762 371.039 200.108L374.961 200.892ZM388.5 213C387.783 213 386.456 212.689 384.765 211.955C383.128 211.243 381.333 210.216 379.718 208.976C378.094 207.729 376.732 206.328 375.869 204.897C375.015 203.479 374.711 202.144 374.961 200.892L371.039 200.108C370.539 202.606 371.235 204.958 372.443 206.962C373.643 208.953 375.406 210.708 377.282 212.149C379.167 213.596 381.247 214.788 383.172 215.624C385.044 216.436 386.967 217 388.5 217V213ZM404.414 209.707C400.299 210.663 396.721 211.494 393.926 212.087C391.037 212.699 389.229 213 388.5 213V217C389.74 217 392.007 216.583 394.755 216C397.597 215.397 401.218 214.556 405.319 213.604L404.414 209.707ZM441.693 202.024C428.952 204.006 414.96 207.257 404.414 209.707L405.319 213.604C415.892 211.147 429.739 207.931 442.307 205.976L441.693 202.024ZM447.434 201.142C445.421 201.449 443.498 201.743 441.693 202.024L442.307 205.976C444.106 205.696 446.023 205.404 448.037 205.096L447.434 201.142ZM512.476 183.705C510.864 185.601 507.598 187.516 502.875 189.352C498.229 191.156 492.462 192.778 486.156 194.237C473.545 197.156 459.011 199.375 447.434 201.142L448.037 205.096C459.583 203.334 474.272 201.093 487.057 198.134C493.449 196.655 499.424 194.983 504.323 193.08C509.145 191.207 513.226 188.999 515.524 186.295L512.476 183.705ZM522.56 153.985C524.834 163.083 520.785 173.93 512.476 183.705L515.524 186.295C524.215 176.07 529.166 163.917 526.44 153.015L522.56 153.985ZM492.407 136.41C497.159 137.885 504.414 140.592 510.694 143.895C513.837 145.548 516.669 147.316 518.809 149.111C520.999 150.948 522.215 152.607 522.56 153.985L526.44 153.015C525.785 150.393 523.772 148.052 521.379 146.046C518.936 143.997 515.83 142.077 512.556 140.355C506.003 136.908 498.508 134.115 493.593 132.59L492.407 136.41ZM443.947 127.499C458.875 127.892 482.464 133.594 492.455 136.424L493.545 132.576C483.536 129.74 459.525 123.908 444.053 123.501L443.947 127.499ZM387.426 118.187C388.326 118.76 389.602 119.283 391.049 119.768C392.532 120.264 394.326 120.763 396.347 121.256C400.39 122.241 405.429 123.219 410.868 124.099C421.737 125.858 434.331 127.246 443.947 127.499L444.053 123.501C434.669 123.254 422.263 121.892 411.507 120.151C406.133 119.281 401.203 118.322 397.294 117.369C395.338 116.893 393.66 116.423 392.32 115.975C390.945 115.514 390.049 115.115 389.574 114.813L387.426 118.187ZM420.923 107.001C410.395 107.406 402.649 108.758 397.212 110.315C391.872 111.844 388.539 113.632 387.086 115.086L389.914 117.914C390.628 117.201 393.145 115.64 398.313 114.16C403.385 112.708 410.805 111.394 421.077 110.999L420.923 107.001ZM450.103 106.676C442.861 106.613 433.231 106.528 420.923 107.001L421.077 110.999C433.284 110.529 442.835 110.613 450.068 110.676L450.103 106.676ZM465.425 106.084C464.38 106.398 462.665 106.584 460.035 106.663C457.448 106.741 454.175 106.712 450.103 106.676L450.068 110.676C454.11 110.712 457.473 110.742 460.155 110.661C462.792 110.582 464.977 110.395 466.575 109.916L465.425 106.084ZM473.02 87.2828C473.089 87.7664 472.984 89.1037 472.552 91.1299C472.142 93.0524 471.496 95.3377 470.684 97.5645C469.867 99.802 468.909 101.908 467.896 103.509C466.813 105.219 465.929 105.933 465.425 106.084L466.575 109.916C468.571 109.317 470.124 107.468 471.276 105.648C472.497 103.717 473.57 101.323 474.441 98.9355C475.316 96.5373 476.014 94.0726 476.464 91.9639C476.891 89.9588 477.161 87.9836 476.98 86.7172L473.02 87.2828ZM453.241 80.4832C458.883 81.2191 463.968 82.4388 467.653 83.8651C469.503 84.5813 470.916 85.3175 471.857 86.0141C472.865 86.7593 473.011 87.216 473.02 87.2828L476.98 86.7172C476.739 85.034 475.51 83.7407 474.236 82.7984C472.897 81.8075 471.122 80.9187 469.097 80.1349C465.032 78.5612 459.617 77.2809 453.759 76.5168L453.241 80.4832ZM390.059 77.4991C406.951 77.0023 441.845 78.9967 453.241 80.4832L453.759 76.5168C442.155 75.0033 407.049 72.9977 389.941 73.5009L390.059 77.4991ZM344.749 80.3555C361.424 78.6868 378.185 77.8484 390.059 77.4991L389.941 73.5009C378.003 73.852 361.144 74.6948 344.35 76.3753L344.749 80.3555ZM335.509 2.68504L342.558 78.5505L346.541 78.1804L339.491 2.31496L335.509 2.68504ZM334.5 4.5H337.5V0.5H334.5V4.5ZM333.471 79.9567C334.753 52.5501 335.966 18.8076 336.499 2.56554L332.501 2.43446C331.969 18.6676 330.757 52.3894 329.475 79.7698L333.471 79.9567ZM323.807 82.9762C326.395 82.5738 329.044 82.1976 331.732 81.8464L331.214 77.8801C328.497 78.2351 325.815 78.6158 323.193 79.0238L323.807 82.9762ZM266.144 93.8574C282.493 90.5074 308.604 85.3413 323.807 82.9762L323.193 79.0238C307.881 81.4056 281.682 86.5906 265.341 89.9388L266.144 93.8574ZM226.482 100.742C241.87 92.0661 254.858 91.1352 265.239 93.8337L266.246 89.9624C254.748 86.9737 240.701 88.1332 224.518 97.2578L226.482 100.742ZM173.988 184.221C175.045 174.71 178.949 158.999 187.237 143.06C195.52 127.131 208.115 111.098 226.482 100.742L224.518 97.2578C205.285 108.102 192.213 124.819 183.688 141.215C175.167 157.601 171.122 173.79 170.012 183.779L173.988 184.221ZM70.0332 223.945C71.7479 224.356 74.1946 224.107 76.8987 223.58C79.7052 223.032 83.1339 222.108 86.9997 220.907C94.7376 218.502 104.386 214.937 114.612 210.884C135.073 202.775 157.983 192.659 172.837 185.817L171.163 182.183C156.351 189.007 133.511 199.092 113.138 207.166C102.948 211.204 93.4082 214.727 85.8128 217.087C82.0119 218.268 78.7375 219.145 76.1325 219.654C73.4251 220.182 71.7521 220.244 70.9667 220.055L70.0332 223.945ZM34.0512 184.45C36.3999 194.627 42.1181 203.691 48.8158 210.581C55.4893 217.447 63.3067 222.33 70.0332 223.945L70.9667 220.055C65.1933 218.67 58.0106 214.303 51.6842 207.794C45.3818 201.309 40.1001 192.873 37.9488 183.55L34.0512 184.45ZM76.4 71.3C57.5377 96.4498 45.8034 119.639 39.352 139.057C32.9185 158.42 31.6855 174.198 34.0512 184.45L37.9488 183.55C35.8144 174.302 36.8314 159.33 43.148 140.318C49.4466 121.361 60.9623 98.5502 79.6 73.7L76.4 71.3ZM181.133 23.8519C179.748 22.8998 177.619 22.2842 175.157 21.9121C172.624 21.5292 169.487 21.3691 165.892 21.4934C158.697 21.7421 149.535 23.1339 139.466 26.2784C119.319 32.5705 95.4404 45.9128 76.4 71.3L79.6 73.7C98.0596 49.0872 121.181 36.1795 140.659 30.0966C150.402 27.0536 159.21 25.7267 166.03 25.491C169.442 25.3731 172.325 25.5294 174.559 25.8672C176.866 26.2158 178.252 26.7252 178.867 27.1481L181.133 23.8519ZM275.962 98.2711C284.612 103.299 290.65 110.673 293.736 116.443L297.264 114.557C293.874 108.219 287.345 100.261 277.973 94.8129L275.962 98.2711ZM293.557 115.976C295.555 124.134 300.796 143.156 305.697 153.365L309.303 151.635C304.604 141.844 299.445 123.199 297.443 115.024L293.557 115.976ZM305.697 153.365C310.515 163.402 315.066 171.938 316.752 174.971L320.248 173.029C318.6 170.062 314.085 161.598 309.303 151.635L305.697 153.365ZM320.439 174.491C323.787 161.264 330.887 127.692 332.497 99.1125L328.503 98.8875C326.913 127.108 319.879 160.403 316.561 173.509L320.439 174.491ZM332.497 99.1125C332.66 96.2155 332.825 93.1182 332.989 89.8703L328.994 89.6678C328.83 92.9097 328.666 95.9994 328.503 98.8875L332.497 99.1125ZM330.807 87.7775C312.475 89.4753 291.652 92.3081 276.67 94.5643L277.265 98.5197C292.212 96.2689 312.951 93.4483 331.176 91.7605L330.807 87.7775ZM225.765 134.927C217.788 141.188 209.787 149.057 203.947 156.732C201.028 160.568 198.61 164.406 197.014 168.013C195.432 171.585 194.569 175.125 195.02 178.283L198.98 177.717C198.681 175.625 199.227 172.896 200.671 169.632C202.101 166.402 204.328 162.836 207.13 159.154C212.733 151.791 220.481 144.159 228.235 138.073L225.765 134.927ZM257.368 118.603C245.237 122.646 236.723 126.326 225.765 134.927L228.235 138.073C238.711 129.851 246.764 126.354 258.633 122.397L257.368 118.603ZM277.6 118.3C277.023 117.531 276.116 116.997 275.119 116.645C274.082 116.279 272.775 116.047 271.183 116.001C268.001 115.909 263.509 116.556 257.368 118.603L258.633 122.397C264.491 120.444 268.499 119.925 271.067 119.999C272.35 120.036 273.23 120.221 273.788 120.417C274.384 120.628 274.477 120.802 274.4 120.7L277.6 118.3ZM278 135V119.5H274V135H278ZM258.011 166.81C260.73 163.673 264.599 157.834 268.273 151.932C271.974 145.987 275.563 139.837 277.741 135.984L274.259 134.016C272.104 137.829 268.543 143.929 264.877 149.818C261.185 155.749 257.47 161.327 254.989 164.19L258.011 166.81ZM213.829 193.973C216.401 193.544 220.042 192.043 223.995 190.071C228.011 188.067 232.552 185.471 236.996 182.697C241.442 179.922 245.818 176.953 249.503 174.195C253.153 171.463 256.238 168.857 258.011 166.81L254.989 164.19C253.513 165.893 250.722 168.287 247.106 170.993C243.526 173.672 239.245 176.578 234.879 179.303C230.511 182.029 226.083 184.558 222.209 186.492C218.27 188.457 215.099 189.706 213.171 190.027L213.829 193.973ZM195.02 178.283C195.813 183.83 197.836 188.232 201.147 191.028C204.502 193.861 208.884 194.797 213.829 193.973L213.171 190.027C209.116 190.703 205.998 189.889 203.728 187.972C201.414 186.018 199.688 182.67 198.98 177.717L195.02 178.283Z" fill="#FCB014"/>
</svg>
